<?xml version="1.0" encoding="UTF-8" standalone="no"?><!DOCTYPE svg PUBLIC "-//W3C//DTD SVG 1.1//EN" "http://www.w3.org/Graphics/SVG/1.1/DTD/svg11.dtd"><svg width="100%" height="100%" viewBox="0 0 960 540" version="1.1" xmlns="http://www.w3.org/2000/svg" xmlns:xlink="http://www.w3.org/1999/xlink" xml:space="preserve" xmlns:serif="http://www.serif.com/" style="fill-rule:evenodd;clip-rule:evenodd;stroke-linejoin:round;stroke-miterlimit:2;"><g id="Layer1"></g><g><path d="M529.562,293.976l0,2.761l-20.534,-0l0,-2.761c3.11,0 4.312,-2.07 4.312,-7.592l-0,-20.096c-0,-5.781 -1.892,-9.061 -6.642,-9.061c-8.794,0 -12.764,18.326 -12.764,24.87l-0,4.287c-0,5.522 1.21,7.592 4.311,7.592l0,2.761l-20.534,-0l0,-2.761c3.11,0 4.32,-2.07 4.32,-7.592l-0,-41.409c-0,-5.522 -1.21,-7.592 -4.32,-7.592l0,-2.761l5.684,0c6.723,0 10.555,0.52 10.555,7.592l0,23.172c1.811,-8.119 7.673,-12.641 16.393,-12.641c8.721,0 14.924,5.261 14.924,16.475l0,17.164c-0.016,5.522 1.186,7.592 4.295,7.592Zm-77.314,-0.942c-8.793,0 -11.018,-7.454 -11.018,-17.944c-0,-10.482 2.225,-17.944 11.018,-17.944c6.049,-0 8.818,3.369 8.477,10.831l12.723,1.738c-0.438,-9.898 -7.478,-17.051 -21.111,-17.051c-17.164,-0 -23.725,10.783 -23.725,22.426c0,11.652 6.561,22.434 23.725,22.434c13.633,0 20.673,-7.186 21.111,-17.051l-12.723,1.754c0.341,7.446 -2.428,10.807 -8.477,10.807Zm-42.952,-27.628l-0,-4.72c-0,-6.731 -3.792,-7.162 -10.556,-7.162l-5.683,0l-0,2.761c3.101,0 4.311,2.071 4.311,7.592l0,22.434c0,5.521 -1.21,7.592 -4.311,7.592l-0,2.761l20.526,-0l-0,-2.761c-3.102,-0 -4.312,-2.071 -4.312,-7.592l0,-8.477c0.012,-3.96 1.138,-7.837 3.248,-11.188c0.625,-1.007 1.723,-1.62 2.907,-1.624l8.615,-0l4.571,-12.358l-1.38,-0c-5.948,0.015 -12.058,3.417 -14.962,8.175l-2.974,4.567Zm-24.887,20.548l0,-12.066c0,-15.427 -5.61,-21.224 -19.665,-21.224c-14.42,-0 -21.452,6.845 -20.226,15.427l11.368,-1.624c-1.795,-5.903 1.039,-9.394 7.673,-9.394c6.901,-0 8.541,3.889 8.882,12.772c-12.073,1.38 -30.367,4.311 -30.367,16.823c0,7.243 4.831,10.783 13.893,10.783c7.673,0 13.982,-3.191 16.564,-7.251l-0,0.609c0.511,4.913 5.001,5.781 8.192,5.781c3.191,0 6.561,-1.209 8.022,-3.45l0,-3.248c-2.785,1.681 -4.336,0.934 -4.336,-3.938Zm-11.903,-11.644l0,5.782c0,5.683 -5.01,12.934 -12.423,12.934c-4.23,0 -6.13,-2.241 -6.13,-6.812c0,-6.991 8.371,-10.783 18.553,-11.904Zm-35.133,19.593l0,2.761l-20.551,-0l0,-2.761c3.102,-0 4.312,-2.071 4.312,-7.592l-0,-20.104c-0,-5.781 -1.9,-9.061 -6.642,-9.061c-8.801,-0 -12.764,18.504 -12.764,24.975l0,4.19c0,5.521 1.202,7.592 4.312,7.592l-0,2.761l-20.535,-0l0,-2.761c3.11,-0 4.312,-2.071 4.312,-7.592l-0,-22.434c-0,-5.521 -1.202,-7.592 -4.312,-7.592l0,-2.761l5.684,0c6.731,0 10.556,0.431 10.556,7.162l-0,4.711c1.81,-8.12 7.672,-12.733 16.385,-12.733c8.712,-0 14.923,5.261 14.923,16.474l0,17.173c-0.016,5.521 1.194,7.592 4.32,7.592Zm-80.635,-41.239l-0.114,-0c-16.304,-0 -23.636,10.783 -23.636,22.426c0,11.643 7.308,22.434 23.636,22.434l0.114,0c16.304,0 23.636,-10.782 23.636,-22.434c-0,-11.652 -7.332,-22.426 -23.636,-22.426Zm0.089,40.362l-0.292,0c-8.599,-0.17 -11.148,-7.145 -10.994,-18.098c0.154,-10.954 2.996,-17.863 11.14,-17.774c8.12,-0.089 10.986,6.747 11.148,17.774c0.163,11.026 -2.395,17.928 -11.002,18.098Zm-33.282,-42.952l0,36.237c0,5.521 1.21,7.592 4.32,7.592l-0,2.761l-20.534,-0l-0,-2.761c3.101,-0 4.311,-2.071 4.311,-7.592l0,-35.369l-20.015,45.722l-12.991,-0l-20.648,-45.722l0,35.369c0,5.521 1.21,7.592 4.312,7.592l-0,2.761l-13.633,-0l-0,-2.761c3.11,-0 4.32,-2.071 4.32,-7.592l-0,-36.237c-0,-5.522 -1.21,-7.592 -4.32,-7.592l-0,-2.761l5.684,0c8.623,0 11.814,0.431 15.524,8.631l19.235,42.961l18.724,-42.961c3.532,-7.941 8.282,-8.541 14.315,-8.631l5.683,0l0,2.761c-3.077,-0 -4.287,2.062 -4.287,7.592Z" style="fill:#002864;"/><g><path d="M106.93,249.061c0.004,5.914 -1.944,10.961 -7.612,12.687l-12.687,5.074c-0.612,0.186 -1.267,0.63 -1.268,1.269c-0.003,0.642 0.653,1.082 1.268,1.269l12.687,5.074c5.651,1.73 7.611,6.788 7.612,12.687l0,19.03c-18.194,-5.081 -30.448,-19.203 -30.448,-38.06c0,-18.857 12.254,-32.98 30.448,-38.06l0,19.03Z" style="fill:#ff7369;"/><path d="M38.422,249.061c-0.004,5.914 1.945,10.961 7.612,12.687l12.687,5.074c0.613,0.186 1.267,0.63 1.268,1.269c0.003,0.642 -0.653,1.082 -1.268,1.269l-12.687,5.074c-5.651,1.73 -7.611,6.788 -7.612,12.687l-0,19.03c18.194,-5.081 30.448,-19.203 30.448,-38.06c0,-18.857 -12.254,-32.98 -30.448,-38.06l-0,19.03Z" style="fill:#ff7369;"/></g></g><g transform="matrix(113.352,0,0,113.352,634.476,308.024)"></g><text x="568.28px" y="308.024px" style="font-family:'ArialMT', 'Arial', sans-serif;font-size:113.352px;">+</text><g transform="matrix(95.0399,0,0,95.0399,881.653,306.96)"></g><text x="710.554px" y="306.96px" style="font-family:'Monaco';font-size:95.04px;">API</text><g transform="matrix(0.934883,-0.354956,0.354956,0.934883,-84.77,109.671)"><g transform="matrix(62.2069,0,0,62.2069,891.446,420.59)"></g><text x="638.948px" y="420.59px" style="font-family:'BookAkhanake', 'Book_Akhanake';font-size:62.207px;fill:#ff7369;">Unofficial</text></g></svg>